<?xml version="1.0" standalone="no"?>
<!DOCTYPE svg PUBLIC "-//W3C//DTD SVG 20010904//EN"
 "http://www.w3.org/TR/2001/REC-SVG-20010904/DTD/svg10.dtd">
<svg version="1.0" xmlns="http://www.w3.org/2000/svg"
 width="2560.000000pt" height="1428.000000pt" viewBox="0 0 2560.000000 1428.000000"
 preserveAspectRatio="xMidYMid meet">

<g transform="translate(0.000000,1428.000000) scale(0.100000,-0.100000)"
fill="#000000" stroke="none">
<path d="M6790 14270 c-1391 -78 -2669 -522 -3787 -1317 -1275 -906 -2237
-2239 -2688 -3724 -357 -1173 -409 -2414 -151 -3609 483 -2241 2034 -4128
4146 -5043 731 -316 1529 -511 2331 -567 237 -17 1016 -8 1209 14 243 27 436
56 629 92 1688 319 3197 1232 4272 2586 101 127 270 356 281 380 3 6 -1662
1021 -1697 1034 -7 3 -41 -32 -83 -88 -345 -457 -794 -877 -1277 -1194 -696
-456 -1455 -728 -2295 -819 -202 -22 -664 -31 -875 -16 -703 50 -1349 227
-1970 540 -793 401 -1439 967 -1947 1706 -257 375 -501 873 -642 1312 -293
915 -324 1903 -90 2836 285 1136 962 2151 1909 2862 711 534 1553 874 2435
984 1228 154 2448 -129 3478 -806 126 -83 386 -275 397 -293 5 -8 -198 -218
-575 -595 l-583 -583 124 -6 c191 -8 3580 -39 3587 -32 6 7 -38 3688 -45 3696
-2 2 -245 -237 -541 -532 l-537 -537 -30 25 c-1173 993 -2586 1570 -4120 1684
-197 15 -681 20 -865 10z"/>
<path d="M10716 8970 c-280 -44 -486 -182 -590 -395 -46 -93 -83 -222 -101
-359 -35 -248 -38 -1959 -5 -2241 45 -387 237 -626 575 -716 101 -27 354 -37
477 -19 384 56 581 262 638 666 6 44 14 208 17 367 l6 287 -210 0 -210 0 -6
-277 c-4 -235 -8 -290 -26 -355 -64 -243 -208 -343 -457 -316 -167 18 -280
109 -334 267 -33 99 -43 376 -44 1211 -1 854 9 1070 58 1235 36 118 124 215
231 252 77 28 284 25 346 -3 63 -29 123 -86 150 -141 42 -87 50 -147 56 -405
l6 -248 208 0 209 0 0 183 c0 453 -49 637 -209 798 -61 61 -95 85 -171 123
-139 68 -225 87 -405 91 -82 2 -177 0 -209 -5z"/>
<path d="M19168 8966 c-188 -34 -319 -97 -434 -211 -148 -146 -209 -301 -246
-620 -18 -157 -18 -1927 0 -2106 17 -169 44 -277 97 -384 97 -198 253 -324
481 -387 70 -19 103 -22 289 -22 196 0 217 2 307 26 140 38 228 87 319 178
168 168 219 373 219 883 l0 237 -209 0 -209 0 -5 -287 c-4 -258 -6 -296 -26
-362 -27 -92 -52 -141 -98 -192 -72 -80 -155 -111 -292 -110 -197 1 -334 90
-392 256 -30 87 -37 198 -49 780 -11 543 -1 1244 20 1460 21 205 54 302 133
383 75 78 168 112 308 112 195 0 305 -78 356 -252 12 -40 17 -119 20 -310 l5
-258 209 0 209 0 0 219 c0 309 -26 486 -90 611 -82 162 -245 283 -455 340
-103 28 -351 36 -467 16z"/>
<path d="M14450 7106 l0 -1826 225 0 225 0 0 745 0 745 188 0 c263 0 492 16
586 40 251 64 408 223 475 482 40 156 46 230 46 593 -1 403 -10 477 -83 628
-108 221 -253 337 -487 388 -94 21 -131 22 -637 26 l-538 5 0 -1826z m970
1393 c181 -29 283 -131 315 -316 34 -197 28 -672 -11 -785 -19 -58 -92 -142
-148 -170 -85 -44 -130 -50 -408 -55 l-268 -5 0 671 0 671 228 0 c125 0 256
-5 292 -11z"/>
<path d="M12819 8918 c0 -2 -177 -820 -393 -1818 l-392 -1815 230 -3 c126 -1
231 -1 233 2 4 3 123 668 123 686 0 6 151 10 428 10 l428 0 64 -350 64 -350
233 0 c187 0 233 3 233 13 0 13 -786 3575 -796 3610 -5 15 -25 17 -230 17
-123 0 -224 -1 -225 -2z m400 -1603 c95 -500 174 -918 177 -927 5 -17 -16 -18
-346 -18 -335 0 -352 1 -348 18 3 10 79 430 169 935 90 504 167 913 170 909 3
-4 83 -416 178 -917z"/>
<path d="M16400 8720 l0 -200 345 0 345 0 0 -1620 0 -1620 225 0 225 0 0 1620
0 1620 345 0 345 0 0 200 0 200 -915 0 -915 0 0 -200z"/>
<path d="M20760 7100 l0 -1820 230 0 230 0 0 850 0 850 415 0 415 0 0 -850 0
-850 225 0 225 0 0 1820 0 1820 -225 0 -225 0 0 -775 0 -775 -415 0 -415 0 0
775 0 775 -230 0 -230 0 0 -1820z"/>
<path d="M23655 8898 c-18 -75 -775 -3601 -775 -3609 0 -6 91 -8 232 -7 l232
3 60 345 61 345 426 3 427 2 21 -117 c12 -65 41 -221 64 -348 l43 -230 238 -3
c189 -2 237 0 234 10 -3 7 -185 826 -404 1820 l-399 1808 -227 0 -228 0 -5
-22z m405 -1573 c93 -495 173 -912 176 -927 l6 -28 -346 0 c-336 0 -346 1
-346 19 0 20 315 1786 326 1831 4 14 8 21 10 15 2 -5 80 -415 174 -910z"/>
<path d="M24980 8900 c0 -17 7 -20 50 -20 l50 0 0 -145 0 -145 25 0 25 0 0
145 0 145 50 0 c43 0 50 3 50 20 0 19 -7 20 -125 20 -118 0 -125 -1 -125 -20z"/>
<path d="M25267 8843 c-22 -272 -22 -253 0 -253 23 0 32 35 34 135 1 61 15
175 18 141 0 -10 20 -74 42 -142 33 -100 45 -124 60 -124 21 0 33 24 81 170
18 55 36 100 41 100 4 0 7 -39 7 -87 0 -49 3 -112 6 -140 6 -44 10 -53 27 -53
19 0 20 4 13 133 -10 188 -12 197 -47 197 -33 0 -37 -7 -89 -164 l-33 -97 -32
98 c-57 170 -53 163 -90 163 l-32 0 -6 -77z"/>
<path d="M8036 8189 c-334 -43 -581 -210 -732 -493 -174 -327 -194 -801 -48
-1132 67 -153 215 -322 353 -404 255 -152 611 -192 919 -104 176 50 337 143
461 265 65 64 221 261 221 278 0 6 -433 231 -443 231 -3 0 -24 -33 -48 -72
-106 -179 -238 -266 -431 -284 -250 -22 -451 127 -504 374 -7 37 -14 84 -14
105 l0 37 736 0 736 0 -7 93 c-29 436 -142 710 -367 896 -212 175 -512 251
-832 210z m266 -430 c119 -25 217 -101 265 -205 24 -54 54 -173 46 -186 -2 -5
-191 -8 -419 -8 -473 0 -429 -11 -395 99 26 84 61 140 125 198 107 98 233 132
378 102z"/>
<path d="M5070 7125 l0 -1045 325 0 325 0 2 368 3 367 100 0 100 0 201 -365
201 -365 366 -3 367 -2 -255 422 c-246 407 -255 423 -233 432 116 46 178 84
239 145 119 120 176 278 165 461 -18 305 -176 519 -436 589 -129 35 -260 41
-876 41 l-594 0 0 -1045z m1023 606 c89 -12 154 -46 192 -100 28 -40 30 -48
30 -141 0 -93 -2 -101 -30 -141 -60 -85 -168 -112 -420 -107 l-140 3 -3 235
c-1 129 0 240 2 247 6 15 259 18 369 4z"/>
</g>
</svg>
